<svg width="581" height="462" viewBox="0 0 581 462" fill="none" xmlns="http://www.w3.org/2000/svg">
<path d="M149.104 142.84V54.9492H243.83V142.84H149.104ZM337.58 142.84V54.9492H432.307V142.84H337.58ZM54.8652 230.975V142.84H149.104V230.975H54.8652ZM243.83 230.975V142.84H337.58V230.975H243.83ZM432.307 230.975V142.84H526.789V230.975H432.307ZM149.104 318.865V230.975H243.83V318.865H149.104ZM337.58 318.865V230.975H432.307V318.865H337.58ZM54.8652 397.479V318.865H149.104V406.756H64.875L54.8652 397.479ZM243.83 406.756V318.865H337.58V406.756H243.83ZM432.307 406.756V318.865H526.789V396.746L515.314 406.756H432.307ZM83.4297 461.199C56.4115 461.199 35.8223 454.201 21.6621 440.203C7.66471 426.206 0.666016 405.942 0.666016 379.412V82.7812C0.666016 55.9258 7.66471 35.5807 21.6621 21.7461C35.8223 7.7487 56.4115 0.75 83.4297 0.75H498.225C525.243 0.75 545.751 7.7487 559.748 21.7461C573.745 35.7435 580.744 56.0885 580.744 82.7812V379.412C580.744 405.942 573.745 426.206 559.748 440.203C545.751 454.201 525.243 461.199 498.225 461.199H83.4297ZM87.8242 406.756H493.586C504.165 406.756 512.303 404.07 518 398.699C523.697 393.165 526.545 384.783 526.545 373.553V88.3965C526.545 77.166 523.697 68.7839 518 63.25C512.303 57.7161 504.165 54.9492 493.586 54.9492H87.8242C77.082 54.9492 68.8626 57.7161 63.166 63.25C57.6322 68.7839 54.8652 77.166 54.8652 88.3965V373.553C54.8652 384.783 57.6322 393.165 63.166 398.699C68.8626 404.07 77.082 406.756 87.8242 406.756Z" fill="black" style="fill:black;fill-opacity:1;"/>
</svg>
