<svg width="464" height="463" viewBox="0 0 464 463" fill="none" xmlns="http://www.w3.org/2000/svg">
<path d="M232.055 49.3574C225.382 49.3574 219.604 46.9974 214.721 42.2773C210.001 37.3945 207.641 31.6165 207.641 24.9434C207.641 18.1074 210.001 12.3294 214.721 7.60938C219.604 2.88932 225.382 0.529297 232.055 0.529297C238.891 0.529297 244.669 2.88932 249.389 7.60938C254.271 12.3294 256.713 18.1074 256.713 24.9434C256.713 31.6165 254.271 37.3945 249.389 42.2773C244.669 46.9974 238.891 49.3574 232.055 49.3574ZM439.086 256.145C432.413 256.145 426.635 253.785 421.752 249.064C417.032 244.182 414.672 238.404 414.672 231.73C414.672 225.057 417.032 219.361 421.752 214.641C426.635 209.758 432.413 207.316 439.086 207.316C445.759 207.316 451.537 209.758 456.42 214.641C461.303 219.361 463.744 225.057 463.744 231.73C463.744 238.404 461.303 244.182 456.42 249.064C451.537 253.785 445.759 256.145 439.086 256.145ZM232.055 462.932C225.382 462.932 219.604 460.49 214.721 455.607C210.001 450.887 207.641 445.191 207.641 438.518C207.641 431.844 210.001 426.066 214.721 421.184C219.604 416.464 225.382 414.104 232.055 414.104C238.891 414.104 244.669 416.464 249.389 421.184C254.271 426.066 256.713 431.844 256.713 438.518C256.713 445.191 254.271 450.887 249.389 455.607C244.669 460.49 238.891 462.932 232.055 462.932ZM25.2676 256.145C18.5944 256.145 12.8164 253.785 7.93359 249.064C3.21354 244.182 0.853516 238.404 0.853516 231.73C0.853516 225.057 3.21354 219.361 7.93359 214.641C12.8164 209.758 18.5944 207.316 25.2676 207.316C31.9408 207.316 37.6374 209.758 42.3574 214.641C47.2402 219.361 49.6816 225.057 49.6816 231.73C49.6816 238.404 47.2402 244.182 42.3574 249.064C37.6374 253.785 31.9408 256.145 25.2676 256.145ZM232.055 118.205C225.382 118.205 219.604 115.845 214.721 111.125C210.001 106.242 207.641 100.464 207.641 93.791C207.641 87.1178 210.001 81.4212 214.721 76.7012C219.604 71.8184 225.382 69.377 232.055 69.377C238.891 69.377 244.669 71.8184 249.389 76.7012C254.271 81.4212 256.713 87.1178 256.713 93.791C256.713 100.464 254.271 106.242 249.389 111.125C244.669 115.845 238.891 118.205 232.055 118.205ZM232.055 187.053C225.382 187.053 219.604 184.693 214.721 179.973C210.001 175.253 207.641 169.475 207.641 162.639C207.641 155.965 210.001 150.269 214.721 145.549C219.604 140.666 225.382 138.225 232.055 138.225C238.891 138.225 244.669 140.666 249.389 145.549C254.271 150.269 256.713 155.965 256.713 162.639C256.713 169.475 254.271 175.253 249.389 179.973C244.669 184.693 238.891 187.053 232.055 187.053ZM232.055 324.992C225.382 324.992 219.604 322.632 214.721 317.912C210.001 313.192 207.641 307.414 207.641 300.578C207.641 293.905 210.001 288.208 214.721 283.488C219.604 278.605 225.382 276.164 232.055 276.164C238.891 276.164 244.669 278.605 249.389 283.488C254.271 288.208 256.713 293.905 256.713 300.578C256.713 307.414 254.271 313.192 249.389 317.912C244.669 322.632 238.891 324.992 232.055 324.992ZM232.055 394.084C225.382 394.084 219.604 391.724 214.721 387.004C210.001 382.121 207.641 376.343 207.641 369.67C207.641 362.834 210.001 357.056 214.721 352.336C219.604 347.616 225.382 345.256 232.055 345.256C238.891 345.256 244.669 347.616 249.389 352.336C254.271 357.056 256.713 362.834 256.713 369.67C256.713 376.343 254.271 382.121 249.389 387.004C244.669 391.724 238.891 394.084 232.055 394.084ZM94.1152 256.145C87.4421 256.145 81.6641 253.785 76.7812 249.064C72.0612 244.182 69.7012 238.404 69.7012 231.73C69.7012 225.057 72.0612 219.361 76.7812 214.641C81.6641 209.758 87.4421 207.316 94.1152 207.316C100.951 207.316 106.729 209.758 111.449 214.641C116.332 219.361 118.773 225.057 118.773 231.73C118.773 238.404 116.332 244.182 111.449 249.064C106.729 253.785 100.951 256.145 94.1152 256.145ZM163.207 256.145C156.534 256.145 150.756 253.785 145.873 249.064C141.153 244.182 138.793 238.404 138.793 231.73C138.793 225.057 141.153 219.361 145.873 214.641C150.756 209.758 156.534 207.316 163.207 207.316C169.88 207.316 175.658 209.758 180.541 214.641C185.424 219.361 187.865 225.057 187.865 231.73C187.865 238.404 185.424 244.182 180.541 249.064C175.658 253.785 169.88 256.145 163.207 256.145ZM301.146 256.145C294.473 256.145 288.695 253.785 283.812 249.064C279.092 244.182 276.732 238.404 276.732 231.73C276.732 225.057 279.092 219.361 283.812 214.641C288.695 209.758 294.473 207.316 301.146 207.316C307.82 207.316 313.598 209.758 318.48 214.641C323.363 219.361 325.805 225.057 325.805 231.73C325.805 238.404 323.363 244.182 318.48 249.064C313.598 253.785 307.82 256.145 301.146 256.145ZM369.994 256.145C363.321 256.145 357.543 253.785 352.66 249.064C347.94 244.182 345.58 238.404 345.58 231.73C345.58 225.057 347.94 219.361 352.66 214.641C357.543 209.758 363.321 207.316 369.994 207.316C376.667 207.316 382.445 209.758 387.328 214.641C392.211 219.361 394.652 225.057 394.652 231.73C394.652 238.404 392.211 244.182 387.328 249.064C382.445 253.785 376.667 256.145 369.994 256.145ZM25.0234 410.686C56.599 405.314 83.2103 394.654 104.857 378.703C126.505 362.59 145.548 341.35 161.986 314.982C178.425 288.615 194.701 257.447 210.814 221.477C230.02 179.159 249.633 143.026 269.652 113.078C289.672 82.9674 312.54 59.0417 338.256 41.3008C364.135 23.3971 395.385 11.4342 432.006 5.41211C438.191 4.43555 443.969 5.90039 449.34 9.80664C454.711 13.5501 457.966 18.5957 459.105 24.9434C460.082 31.1283 458.617 36.9062 454.711 42.2773C450.805 47.6484 445.759 50.8223 439.574 51.7988C407.999 57.1699 381.387 67.9121 359.74 84.0254C338.256 99.9759 319.213 121.135 302.611 147.502C286.173 173.869 269.896 205.038 253.783 241.008C234.577 283.326 214.965 319.54 194.945 349.65C174.926 379.598 151.977 403.443 126.098 421.184C100.219 439.087 69.0501 451.05 32.5918 457.072C26.2441 458.049 20.3848 456.584 15.0137 452.678C9.80534 448.934 6.63151 443.889 5.49219 437.541C4.35286 431.356 5.73633 425.578 9.64258 420.207C13.5488 414.836 18.6758 411.662 25.0234 410.686ZM232.055 256.145C225.382 256.145 219.604 253.785 214.721 249.064C210.001 244.182 207.641 238.404 207.641 231.73C207.641 225.057 210.001 219.361 214.721 214.641C219.604 209.758 225.382 207.316 232.055 207.316C238.891 207.316 244.669 209.758 249.389 214.641C254.271 219.361 256.713 225.057 256.713 231.73C256.713 238.404 254.271 244.182 249.389 249.064C244.669 253.785 238.891 256.145 232.055 256.145Z" fill="black" style="fill:black;fill-opacity:1;"/>
</svg>
