<svg width="640" height="474" viewBox="0 0 640 474" fill="none" xmlns="http://www.w3.org/2000/svg">
<path d="M0.0957031 349.604C0.0957031 340.814 0.990885 331.781 2.78125 322.504C4.57161 313.064 7.74544 303.054 12.3027 292.475L110.691 58.3438C118.504 39.9518 129.816 25.7917 144.627 15.8633C159.601 5.9349 177.098 0.970703 197.117 0.970703C222.182 0.970703 242.202 8.45768 257.176 23.4316C272.312 38.2428 279.881 58.0182 279.881 82.7578V102.045C286.391 100.255 292.983 98.8711 299.656 97.8945C306.329 96.918 313.165 96.4297 320.164 96.4297C327.326 96.4297 334.161 96.8366 340.672 97.6504C347.345 98.3014 353.774 99.4408 359.959 101.068V83.002C359.959 58.2624 367.446 38.487 382.42 23.6758C397.557 8.70182 417.658 1.21484 442.723 1.21484C462.579 1.21484 479.995 6.17904 494.969 16.1074C509.943 25.873 521.336 40.0332 529.148 58.5879L627.537 292.719C632.094 303.298 635.268 313.227 637.059 322.504C638.849 331.781 639.744 340.896 639.744 349.848C639.744 373.285 633.396 394.281 620.701 412.836C608.169 431.391 591.323 446.039 570.164 456.781C549.005 467.686 525.486 473.139 499.607 473.139C473.729 473.139 450.21 467.686 429.051 456.781C407.892 446.039 391.046 431.391 378.514 412.836C366.144 394.281 359.959 373.285 359.959 349.848V292.963C348.891 289.382 335.626 287.592 320.164 287.592C313.003 287.592 306.004 288.161 299.168 289.301C292.332 290.44 285.903 291.986 279.881 293.939V349.604C279.881 373.041 273.615 394.037 261.082 412.592C248.549 431.146 231.704 445.795 210.545 456.537C189.386 467.442 165.949 472.895 140.232 472.895C114.354 472.895 90.8346 467.442 69.6758 456.537C48.5169 445.795 31.5898 431.146 18.8945 412.592C6.36198 394.037 0.0957031 373.041 0.0957031 349.604ZM52.0977 349.604C52.0977 363.926 55.9225 376.622 63.5723 387.689C71.3848 398.594 81.8828 407.139 95.0664 413.324C108.413 419.509 123.468 422.602 140.232 422.602C157.16 422.602 172.296 419.509 185.643 413.324C199.152 407.302 209.731 398.839 217.381 387.934C225.193 376.866 229.1 364.089 229.1 349.604C229.1 334.955 225.193 322.178 217.381 311.273C209.731 300.206 199.152 291.661 185.643 285.639C172.133 279.617 156.997 276.605 140.232 276.605C123.468 276.605 108.413 279.617 95.0664 285.639C81.8828 291.661 71.3848 300.206 63.5723 311.273C55.9225 322.178 52.0977 334.955 52.0977 349.604ZM410.74 349.848C410.74 364.333 414.646 377.029 422.459 387.934C430.271 398.839 440.851 407.302 454.197 413.324C467.706 419.509 482.843 422.602 499.607 422.602C516.535 422.602 531.59 419.509 544.773 413.324C557.957 407.139 568.374 398.594 576.023 387.689C583.673 376.785 587.498 364.171 587.498 349.848C587.498 335.199 583.673 322.423 576.023 311.518C568.374 300.45 557.957 291.905 544.773 285.883C531.59 279.698 516.535 276.605 499.607 276.605C482.843 276.605 467.706 279.698 454.197 285.883C440.851 291.905 430.271 300.45 422.459 311.518C414.646 322.423 410.74 335.199 410.74 349.848ZM279.881 218.988C285.903 217.035 292.332 215.489 299.168 214.35C306.004 213.21 313.003 212.641 320.164 212.641C335.626 212.641 348.891 214.268 359.959 217.523V176.508C353.774 175.043 347.345 173.904 340.672 173.09C334.161 172.276 327.326 171.869 320.164 171.869C306.167 171.869 292.739 173.741 279.881 177.484V218.988Z" fill="black" style="fill:black;fill-opacity:1;"/>
</svg>
